<?xml version="1.0" standalone="no"?><!DOCTYPE svg PUBLIC "-//W3C//DTD SVG 1.1//EN" "http://www.w3.org/Graphics/SVG/1.1/DTD/svg11.dtd"><svg t="1695618723172" class="icon" viewBox="0 0 1048 1024" version="1.1" xmlns="http://www.w3.org/2000/svg" p-id="5786" xmlns:xlink="http://www.w3.org/1999/xlink" width="204.6875" height="200"><path d="M433.207186 242.571497h-48.072815a27.592814 27.592814 0 0 0-23.883114 15.758563L266.730539 492.43976c-3.49509 8.707066 1.471617 15.789222 11.129102 15.789222h48.103473a27.592814 27.592814 0 0 0 23.852455-15.789222l94.428742-234.1097c3.617725-8.707066-1.379641-15.758563-11.037125-15.758563zM578.130778 539.991377h-47.214371a34.153772 34.153772 0 0 0-29.585629 19.56024l-91.393532 226.506347c-4.353533 10.822515 1.839521 19.590898 13.796407 19.590898h47.24503a34.184431 34.184431 0 0 0 29.585628-19.590898l91.362875-226.506347c4.353533-10.761198-1.808862-19.56024-13.796408-19.56024zM564.763593 242.571497h-45.988024a29.371018 29.371018 0 0 0-25.170779 16.770299L280.956168 786.272575c-3.709701 9.197605 1.563593 16.770299 11.834251 16.770299h45.988024a29.309701 29.309701 0 0 0 25.354731-16.770299l212.46467-526.930779c3.740359-9.258922-1.563593-16.770299-11.834251-16.770299zM830.083832 242.571497h-45.988024a29.371018 29.371018 0 0 0-25.385389 16.770299L545.264671 788.847904c-3.740359 9.197605 1.532934 16.800958 11.803592 16.800958h45.988024a29.309701 29.309701 0 0 0 25.354731-16.800958l213.507066-529.506108c3.740359-9.258922-1.563593-16.770299-11.834252-16.770299z" fill="#39BDFF" p-id="5787"></path></svg>